<svg width="22" height="22" viewBox="0 0 22 22" fill="none" xmlns="http://www.w3.org/2000/svg">
<path fill-rule="evenodd" clip-rule="evenodd" d="M11 4.25C9.88337 4.25 8.88579 4.53084 8.18944 5.31423C7.51128 6.07717 7.25 7.17341 7.25 8.5C7.25 9.82659 7.51128 10.9228 8.18944 11.6858C8.88579 12.4692 9.88337 12.75 11 12.75C12.1166 12.75 13.1142 12.4692 13.8106 11.6858C14.4887 10.9228 14.75 9.82659 14.75 8.5C14.75 7.17341 14.4887 6.07717 13.8106 5.31423C13.1142 4.53084 12.1166 4.25 11 4.25ZM8.75 8.5C8.75 7.32659 8.98872 6.67283 9.31056 6.31077C9.61421 5.96916 10.1166 5.75 11 5.75C11.8834 5.75 12.3858 5.96916 12.6894 6.31077C13.0113 6.67283 13.25 7.32659 13.25 8.5C13.25 9.67341 13.0113 10.3272 12.6894 10.6892C12.3858 11.0308 11.8834 11.25 11 11.25C10.1166 11.25 9.61421 11.0308 9.31056 10.6892C8.98872 10.3272 8.75 9.67341 8.75 8.5Z" fill="white"/>
<path fill-rule="evenodd" clip-rule="evenodd" d="M11 0.25C5.06294 0.25 0.25 5.06294 0.25 11C0.25 14.0833 1.54905 16.8644 3.62756 18.8237C5.55155 20.6373 8.14665 21.75 11 21.75C13.8533 21.75 16.4485 20.6373 18.3724 18.8237C20.451 16.8644 21.75 14.0833 21.75 11C21.75 5.06294 16.9371 0.25 11 0.25ZM1.75 11C1.75 5.89137 5.89137 1.75 11 1.75C16.1086 1.75 20.25 5.89137 20.25 11C20.25 13.2513 19.4464 15.314 18.1092 16.9184C17.5707 15.9743 16.7486 15.3356 15.7398 14.9275C14.4107 14.3899 12.7572 14.25 11 14.25C9.24283 14.25 7.58932 14.3899 6.26019 14.9275C5.25136 15.3356 4.4293 15.9743 3.89081 16.9184C2.55356 15.314 1.75 13.2513 1.75 11ZM15.1773 16.3181C16.0397 16.6669 16.6502 17.1997 16.992 18.0472C15.3774 19.4215 13.2862 20.25 11 20.25C8.71384 20.25 6.6226 19.4215 5.00801 18.0472C5.34978 17.1997 5.96033 16.6669 6.82265 16.3181C7.87064 15.8942 9.28063 15.75 11 15.75C12.7194 15.75 14.1294 15.8942 15.1773 16.3181Z" fill="white"/>
</svg>
