<svg width="20" height="20" viewBox="0 0 20 20" fill="none" xmlns="http://www.w3.org/2000/svg">
<path fill-rule="evenodd" clip-rule="evenodd" d="M8.83363 1.51434C4.7913 1.51434 1.51434 4.7913 1.51434 8.83363C1.51434 12.876 4.7913 16.1529 8.83363 16.1529C10.8498 16.1529 12.6744 15.3387 13.9989 14.0194C15.3303 12.6932 16.1529 10.8602 16.1529 8.83363C16.1529 4.7913 12.876 1.51434 8.83363 1.51434ZM0 8.83363C0 3.95495 3.95495 0 8.83363 0C13.7123 0 17.6673 3.95495 17.6673 8.83363C17.6673 11.0052 16.8829 12.9946 15.5834 14.5325L20 18.9265L18.932 20L14.5109 15.6016C12.976 16.8902 10.995 17.6673 8.83363 17.6673C3.95495 17.6673 0 13.7123 0 8.83363Z" fill="white"/>
</svg>
